<svg id="svg" version="1.1" width="1000" height="1000" xmlns="http://www.w3.org/2000/svg" xmlns:xlink="http://www.w3.org/1999/xlink" ><g id="svgg"><path id="path0" d="M0.000 200.000 L 0.000 400.000 200.000 400.000 L 400.000 400.000 400.000 200.000 L 400.000 0.000 200.000 0.000 L 0.000 0.000 0.000 200.000 M396.000 200.000 L 396.000 396.000 200.000 396.000 L 4.000 396.000 4.000 200.000 L 4.000 4.000 200.000 4.000 L 396.000 4.000 396.000 200.000 M331.764 130.994 C 316.606 134.292,309.394 153.080,318.274 166.136 C 329.461 182.585,355.294 177.348,359.398 157.800 C 362.808 141.557,348.226 127.412,331.764 130.994 M343.176 141.220 C 347.842 143.707,350.552 148.023,350.572 153.000 C 350.629 167.378,331.433 172.122,325.117 159.292 C 319.333 147.542,331.741 135.125,343.176 141.220 M129.400 154.189 C 116.602 156.230,104.462 162.592,97.575 170.869 L 95.533 173.322 100.461 178.262 L 105.389 183.201 108.113 180.395 C 126.185 161.778,158.971 163.820,164.171 183.886 C 168.884 202.078,155.269 220.126,108.922 257.121 L 96.045 267.400 96.022 273.900 L 96.000 280.400 138.800 280.400 L 181.600 280.400 181.600 273.200 L 181.600 266.000 151.366 266.000 L 121.133 266.000 126.666 261.539 C 170.712 226.029,184.599 205.919,180.634 183.390 C 176.972 162.585,155.062 150.097,129.400 154.189 M243.600 154.386 C 220.668 159.308,206.277 181.950,205.327 214.600 C 204.259 251.308,220.019 277.627,245.600 281.855 C 277.428 287.114,300.547 260.061,300.512 217.600 C 300.477 174.728,275.918 147.450,243.600 154.386 M258.265 168.193 C 275.044 171.365,284.198 188.956,284.182 218.000 C 284.165 249.950,272.759 268.144,252.804 268.052 C 234.310 267.968,223.217 252.337,221.631 224.126 C 219.519 186.542,234.481 163.696,258.265 168.193 M35.600 234.800 L 35.600 241.200 58.000 241.200 L 80.400 241.200 80.400 234.800 L 80.400 228.400 58.000 228.400 L 35.600 228.400 35.600 234.800 " stroke="none" fill="#000000" fill-rule="evenodd"></path></g></svg>