<svg id="svg" version="1.1" width="1000" height="1000" xmlns="http://www.w3.org/2000/svg" xmlns:xlink="http://www.w3.org/1999/xlink" ><g id="svgg"><path id="path0" d="M0.000 200.000 L 0.000 400.000 200.000 400.000 L 400.000 400.000 400.000 200.000 L 400.000 0.000 200.000 0.000 L 0.000 0.000 0.000 200.000 M396.000 200.000 L 396.000 396.000 200.000 396.000 L 4.000 396.000 4.000 200.000 L 4.000 4.000 200.000 4.000 L 396.000 4.000 396.000 200.000 M211.800 133.949 C 203.861 135.405,196.152 138.414,190.000 142.460 C 187.417 144.159,179.186 151.919,179.215 152.629 C 179.223 152.833,181.365 155.250,183.974 158.000 L 188.718 163.000 191.259 160.226 C 208.955 140.909,243.361 143.570,247.796 164.600 C 251.632 182.794,238.746 199.508,191.890 237.108 L 179.180 247.308 179.290 253.554 L 179.400 259.800 222.200 259.800 L 265.000 259.800 265.109 252.703 L 265.218 245.605 235.003 245.503 L 204.788 245.400 212.494 239.137 C 253.231 206.029,265.935 188.022,264.300 165.704 C 262.674 143.504,238.718 129.015,211.800 133.949 M326.800 133.973 C 310.448 137.611,299.143 149.229,292.885 168.825 C 284.857 193.966,288.340 225.160,301.264 243.855 C 318.253 268.431,355.218 268.087,371.694 243.200 C 388.210 218.251,387.954 175.273,371.144 150.957 C 361.726 137.334,343.341 130.292,326.800 133.973 M29.600 197.400 L 29.600 260.017 37.500 259.908 L 45.400 259.800 45.400 197.400 L 45.400 135.000 37.500 134.892 L 29.600 134.783 29.600 197.400 M74.194 135.276 C 74.084 135.564,74.041 163.700,74.097 197.800 L 74.200 259.800 82.100 259.908 L 90.000 260.017 90.000 235.208 L 90.000 210.400 108.016 210.400 C 118.109 210.400,127.713 210.213,129.855 209.974 C 172.193 205.253,176.037 145.302,134.605 135.879 C 130.020 134.836,74.572 134.282,74.194 135.276 M344.600 148.564 C 353.859 151.509,361.889 161.283,365.003 173.400 C 369.098 189.333,368.244 214.441,363.176 227.130 C 351.217 257.076,315.990 253.774,307.657 221.926 C 304.025 208.041,303.916 188.460,307.392 174.116 C 312.248 154.077,327.975 143.277,344.600 148.564 M129.000 149.802 C 152.731 154.784,153.308 189.188,129.762 195.210 C 126.905 195.940,125.287 196.000,108.336 196.000 L 90.000 196.000 90.000 172.600 L 90.000 149.200 108.100 149.207 C 122.465 149.212,126.778 149.335,129.000 149.802 " stroke="none" fill="#000000" fill-rule="evenodd"></path></g></svg>