<?xml version="1.0" encoding="iso-8859-1"?>
<!-- Generator: Adobe Illustrator 18.1.1, SVG Export Plug-In . SVG Version: 6.00 Build 0)  -->
<svg version="1.1" id="Layer_1" xmlns="http://www.w3.org/2000/svg" xmlns:xlink="http://www.w3.org/1999/xlink" x="0px" y="0px"
	 width="50px" height="50px" viewBox="0 0 50 50" enable-background="new 0 0 50 50" xml:space="preserve">
<g>
	<g>
		<g>
			<path d="M5,7.9v2.7H3.7V4h2.6C7.1,4,7.7,4.1,8,4.5c0.4,0.3,0.6,0.8,0.6,1.4c0,0.4-0.1,0.7-0.3,0.9C8.1,7,7.9,7.2,7.5,7.4v0
				C7.9,7.5,8.2,7.7,8.3,8c0.2,0.3,0.2,0.6,0.2,1v0.5c0,0.2,0,0.4,0.1,0.6c0,0.2,0.1,0.3,0.3,0.4v0.1H7.5c-0.1-0.1-0.2-0.3-0.2-0.5
				c0-0.2-0.1-0.4-0.1-0.6V9c0-0.3-0.1-0.6-0.2-0.8C6.8,8,6.6,7.9,6.2,7.9H5z M5,6.9h1.1c0.4,0,0.7-0.1,0.8-0.2
				C7.2,6.5,7.3,6.3,7.3,6c0-0.3-0.1-0.6-0.3-0.7S6.6,5,6.3,5H5V6.9z"/>
			<path d="M13.4,8.9c0-0.3-0.1-0.5-0.3-0.6c-0.2-0.2-0.5-0.3-1-0.4c-0.8-0.2-1.4-0.5-1.8-0.8C9.9,6.7,9.7,6.3,9.7,5.7
				c0-0.6,0.2-1,0.7-1.3c0.5-0.3,1.1-0.5,1.8-0.5c0.7,0,1.3,0.2,1.8,0.6s0.7,0.9,0.7,1.5h-1.3c0-0.3-0.1-0.6-0.3-0.8
				s-0.5-0.3-0.9-0.3c-0.4,0-0.6,0.1-0.8,0.2c-0.2,0.2-0.3,0.4-0.3,0.6c0,0.2,0.1,0.4,0.3,0.6c0.2,0.1,0.6,0.3,1.1,0.5
				c0.7,0.2,1.3,0.5,1.7,0.8c0.4,0.3,0.6,0.8,0.6,1.3c0,0.6-0.2,1-0.7,1.4c-0.4,0.3-1,0.5-1.8,0.5c-0.7,0-1.4-0.2-1.9-0.6
				C9.8,9.8,9.5,9.2,9.5,8.5h1.3c0,0.4,0.1,0.7,0.4,0.9c0.2,0.2,0.6,0.3,1,0.3c0.4,0,0.6-0.1,0.8-0.2S13.4,9.1,13.4,8.9z"/>
			<path d="M18.1,8.3h-2.6v-1h2.6V8.3z"/>
			<path d="M23,8.1h0.8v1H23v1.4h-1.3V9.2H19l-0.1-0.8L21.7,4H23V8.1z M20.2,8.1h1.5V5.7l0,0l-0.1,0.2L20.2,8.1z"/>
			<path d="M28.8,5.7c0,0.3-0.1,0.6-0.3,0.9c-0.2,0.3-0.4,0.4-0.7,0.6c0.4,0.2,0.6,0.4,0.8,0.6c0.2,0.3,0.3,0.6,0.3,1
				c0,0.6-0.2,1.1-0.6,1.4s-1,0.5-1.6,0.5c-0.7,0-1.2-0.2-1.7-0.5s-0.6-0.8-0.6-1.4c0-0.4,0.1-0.7,0.3-1c0.2-0.3,0.5-0.5,0.8-0.6
				C25.3,7,25,6.8,24.9,6.6c-0.2-0.2-0.3-0.5-0.3-0.9c0-0.6,0.2-1.1,0.6-1.4s0.9-0.5,1.5-0.5c0.6,0,1.2,0.2,1.5,0.5
				C28.6,4.7,28.8,5.1,28.8,5.7z M27.6,8.7c0-0.3-0.1-0.5-0.3-0.7c-0.2-0.2-0.4-0.3-0.7-0.3c-0.3,0-0.5,0.1-0.7,0.3
				c-0.2,0.2-0.2,0.4-0.2,0.7c0,0.3,0.1,0.6,0.3,0.7s0.4,0.3,0.7,0.3c0.3,0,0.5-0.1,0.7-0.3C27.6,9.2,27.6,9,27.6,8.7z M27.5,5.8
				c0-0.3-0.1-0.5-0.2-0.6C27.1,5,27,4.9,26.7,4.9c-0.2,0-0.4,0.1-0.6,0.2c-0.1,0.2-0.2,0.4-0.2,0.7c0,0.3,0.1,0.5,0.2,0.7
				s0.3,0.2,0.6,0.2c0.2,0,0.4-0.1,0.6-0.2C27.4,6.3,27.5,6.1,27.5,5.8z"/>
			<path d="M30,7.7L30.4,4h3.7V5h-2.6l-0.2,1.5c0.1-0.1,0.3-0.2,0.4-0.2s0.4-0.1,0.6-0.1c0.7,0,1.1,0.2,1.5,0.6
				c0.3,0.4,0.5,0.9,0.5,1.7c0,0.6-0.2,1.2-0.6,1.6c-0.4,0.4-0.9,0.6-1.7,0.6c-0.6,0-1.1-0.2-1.6-0.5c-0.4-0.3-0.6-0.8-0.6-1.4
				l1.3-0.1c0,0.3,0.1,0.5,0.2,0.7s0.4,0.2,0.7,0.2c0.3,0,0.5-0.1,0.7-0.3S33,8.8,33,8.5c0-0.4-0.1-0.7-0.2-0.9
				c-0.2-0.2-0.4-0.3-0.7-0.3c-0.3,0-0.5,0-0.6,0.1c-0.1,0.1-0.2,0.2-0.3,0.4L30,7.7z"/>
		</g>
	</g>
</g>
<g>
	
		<rect x="30.7" y="21.9" fill="none" stroke="#000000" stroke-linecap="square" stroke-miterlimit="10" width="13.6" height="20.6"/>
	
		<rect x="14.1" y="21.9" fill="none" stroke="#000000" stroke-linecap="square" stroke-miterlimit="10" width="13.6" height="20.6"/>
	<g>
		<g>
			<path d="M21.5,39.9h-1.8l-0.4,1.1h-1l1.8-5.2h1.1l1.8,5.2h-1L21.5,39.9z M20,39.1h1.3L20.6,37h0L20,39.1z"/>
		</g>
	</g>
	<g>
		<g>
			<path d="M35.6,41.1v-5.2h1.8c0.6,0,1.1,0.1,1.4,0.3s0.5,0.6,0.5,1.1c0,0.2-0.1,0.5-0.2,0.6c-0.1,0.2-0.3,0.3-0.5,0.4v0
				c0.3,0.1,0.5,0.2,0.7,0.4c0.1,0.2,0.2,0.5,0.2,0.8c0,0.5-0.2,0.9-0.5,1.1c-0.3,0.2-0.8,0.4-1.4,0.4H35.6z M36.7,38.1h0.8
				c0.3,0,0.5-0.1,0.6-0.2c0.1-0.1,0.2-0.3,0.2-0.5c0-0.2-0.1-0.4-0.2-0.5c-0.1-0.1-0.4-0.2-0.7-0.2h-0.7V38.1z M36.7,38.8v1.5h1
				c0.3,0,0.5-0.1,0.6-0.2c0.1-0.1,0.2-0.3,0.2-0.5c0-0.3-0.1-0.4-0.2-0.6c-0.1-0.1-0.3-0.2-0.6-0.2H36.7z"/>
		</g>
	</g>
	<path d="M37.5,22.7c-2.8,0-5.1,2.3-5.1,5.1s2.3,5.1,5.1,5.1c2.8,0,5.1-2.3,5.1-5.1S40.3,22.7,37.5,22.7z M35,31.1l-1.1-1.3l6.2-5.2
		l1.1,1.3L35,31.1z"/>
	<path d="M20.9,22.7c-2.8,0-5.1,2.3-5.1,5.1c0,2.8,2.3,5.1,5.1,5.1c2.8,0,5.1-2.3,5.1-5.1C26,25,23.7,22.7,20.9,22.7z M18.3,31.1
		l-1.1-1.3l6.2-5.2l1.1,1.3L18.3,31.1z"/>
</g>
</svg>
