<svg width="727" height="218" xmlns="http://www.w3.org/2000/svg" preserveAspectRatio="xMidYMid meet">
 <metadata>Created by potrace 1.15, written by Peter Selinger 2001-2017</metadata>

 <g>
  <title>background</title>
  <rect fill="none" id="canvas_background" height="402" width="582" y="-1" x="-1"/>
 </g>
 <g>
  <title>Layer 1</title>
  <g id="svg_1" fill="#000000" transform="translate(0,218) scale(0.10000000149011612,-0.10000000149011612) ">
   <path fill="#ffffff" id="svg_2" d="m0,1090l0,-1090l75,0l75,0l0,1090l0,1090l-75,0l-75,0l0,-1090z"/>
   <path fill="#ffffff" id="svg_3" d="m2165,2038c58,-79 205,-279 328,-445l222,-303l92,0l93,0l-127,173c-70,94 -173,235 -230,312c-57,77 -147,200 -200,273l-97,132l-93,0l-93,0l105,-142z"/>
   <path fill="#ffffff" id="svg_4" d="m3620,1530l0,-650l75,0l75,0l0,650l0,650l-75,0l-75,0l0,-650z"/>
   <path fill="#ffffff" id="svg_5" d="m4330,1735l0,-445l80,0l80,0l0,375l0,375l430,0l430,0l0,70l0,70l-510,0l-510,0l0,-445z"/>
   <path fill="#ffffff" id="svg_6" d="m5760,2176c0,-2 118,-202 263,-443l263,-438l87,-3c48,-1 87,1 87,6c0,5 -116,204 -258,443l-258,434l-92,3c-51,1 -92,1 -92,-2z"/>
   <path fill="#ffffff" id="svg_7" d="m7018,2082c-31,-53 -147,-250 -257,-436c-111,-187 -201,-343 -201,-348c0,-4 35,-8 78,-8l79,0l264,436c145,240 266,440 267,445c2,5 -36,9 -85,9l-88,0l-57,-98z"/>
   <path fill="#ffffff" id="svg_8" d="m1020,1567c-134,-45 -236,-136 -296,-262c-112,-235 -37,-506 180,-647c84,-54 169,-78 276,-78c220,0 397,121 477,327c23,59 27,83 27,178c0,118 -17,181 -72,270c-59,96 -169,181 -280,215c-91,28 -225,27 -312,-3z"/>
   <path fill="#ffffff" id="svg_9" d="m2120,645l0,-645l80,0l80,0l0,645l0,645l-80,0l-80,0l0,-645z"/>
   <path fill="#ffffff" id="svg_10" d="m4620,1095l0,-75l200,0l200,0l0,75l0,75l-200,0l-200,0l0,-75z"/>
   <path fill="#ffffff" id="svg_11" d="m3026,868c13,-23 243,-336 409,-558c89,-118 176,-236 195,-262l33,-48l94,0l93,0l-106,142c-57,79 -203,276 -323,438l-217,295l-93,3c-73,2 -91,0 -85,-10z"/>
   <path fill="#ffffff" id="svg_12" d="m4330,440l0,-440l535,0l535,0l0,70l0,70l-455,0l-455,0l0,370l0,370l-80,0l-80,0l0,-440z"/>
   <path fill="#ffffff" id="svg_13" d="m5995,450c-148,-237 -272,-435 -273,-441c-3,-6 30,-9 89,-7l92,3l181,295c100,162 221,359 269,438l87,142l-88,0l-87,0l-270,-430z"/>
   <path fill="#ffffff" id="svg_14" d="m6562,871c2,-5 120,-203 262,-440l259,-431l95,0l94,0l-14,23c-8,12 -128,210 -268,440l-253,417l-89,0c-49,0 -88,-4 -86,-9z"/>
  </g>
  <ellipse stroke="#000" ry="51.000003" rx="50.999999" id="svg_16" cy="109.437497" cx="117.999999" stroke-width="0" fill="#0095d9"/>
 </g>
</svg>