<?xml version="1.0" encoding="iso-8859-1"?>
<!-- Generator: Adobe Illustrator 18.1.1, SVG Export Plug-In . SVG Version: 6.00 Build 0)  -->
<svg version="1.1" id="Layer_1" xmlns="http://www.w3.org/2000/svg" xmlns:xlink="http://www.w3.org/1999/xlink" x="0px" y="0px"
	 width="50px" height="50px" viewBox="0 0 50 50" enable-background="new 0 0 50 50" xml:space="preserve">
<g>
	<g>
		<g>
			<path d="M23.5,40.3H11.4V38l5.7-6.1c0.8-1,1.4-1.8,1.8-2.4c0.3-0.6,0.5-1.2,0.5-1.8c0-0.8-0.2-1.4-0.6-1.8
				c-0.4-0.5-1-0.7-1.7-0.7c-0.8,0-1.5,0.3-1.9,0.8s-0.6,1.3-0.6,2.2H11c0-1.7,0.5-3,1.6-4.1c1.1-1.1,2.6-1.6,4.4-1.6
				c1.9,0,3.3,0.5,4.3,1.4S23,26,23,27.6c0,1.1-0.3,2.1-0.9,3c-0.6,0.9-1.5,2.1-2.9,3.6L16,37.6h7.5V40.3z"/>
			<path d="M37.6,33.4c0,2.4-0.5,4.2-1.6,5.4c-1.1,1.2-2.5,1.8-4.4,1.8c-1.9,0-3.4-0.6-4.4-1.8c-1.1-1.2-1.6-3-1.6-5.4v-3.9
				c0-2.4,0.5-4.2,1.6-5.4c1.1-1.2,2.5-1.8,4.4-1.8c1.9,0,3.3,0.6,4.4,1.8s1.6,3,1.6,5.4V33.4z M34.1,29.2c0-1.4-0.2-2.5-0.6-3.1
				c-0.4-0.6-1-1-1.8-1c-0.8,0-1.4,0.3-1.8,1c-0.4,0.6-0.6,1.7-0.6,3.1v4.6c0,1.5,0.2,2.5,0.6,3.1c0.4,0.6,1,1,1.9,1
				c0.8,0,1.4-0.3,1.8-0.9s0.6-1.7,0.6-3.1V29.2z"/>
		</g>
		<g>
			<path d="M23.5,40.3H11.4V38l5.7-6.1c0.8-1,1.4-1.8,1.8-2.4c0.3-0.6,0.5-1.2,0.5-1.8c0-0.8-0.2-1.4-0.6-1.8
				c-0.4-0.5-1-0.7-1.7-0.7c-0.8,0-1.5,0.3-1.9,0.8s-0.6,1.3-0.6,2.2H11c0-1.7,0.5-3,1.6-4.1c1.1-1.1,2.6-1.6,4.4-1.6
				c1.9,0,3.3,0.5,4.3,1.4S23,26,23,27.6c0,1.1-0.3,2.1-0.9,3c-0.6,0.9-1.5,2.1-2.9,3.6L16,37.6h7.5V40.3z"/>
			<path d="M37.6,33.4c0,2.4-0.5,4.2-1.6,5.4c-1.1,1.2-2.5,1.8-4.4,1.8c-1.9,0-3.4-0.6-4.4-1.8c-1.1-1.2-1.6-3-1.6-5.4v-3.9
				c0-2.4,0.5-4.2,1.6-5.4c1.1-1.2,2.5-1.8,4.4-1.8c1.9,0,3.3,0.6,4.4,1.8s1.6,3,1.6,5.4V33.4z M34.1,29.2c0-1.4-0.2-2.5-0.6-3.1
				c-0.4-0.6-1-1-1.8-1c-0.8,0-1.4,0.3-1.8,1c-0.4,0.6-0.6,1.7-0.6,3.1v4.6c0,1.5,0.2,2.5,0.6,3.1c0.4,0.6,1,1,1.9,1
				c0.8,0,1.4-0.3,1.8-0.9s0.6-1.7,0.6-3.1V29.2z"/>
		</g>
	</g>
	<rect x="3.6" y="34" width="5" height="2.7"/>
	<g>
		<path d="M39.5,35.5c0-0.3,0.1-0.6,0.3-0.8c0.2-0.2,0.5-0.3,0.8-0.3c0.3,0,0.6,0.1,0.8,0.3c0.2,0.2,0.3,0.5,0.3,0.8
			c0,0.3-0.1,0.6-0.3,0.8c-0.2,0.2-0.5,0.3-0.8,0.3c-0.3,0-0.6-0.1-0.8-0.3C39.6,36,39.5,35.8,39.5,35.5z M40.1,35.5
			c0,0.1,0,0.3,0.1,0.4s0.2,0.1,0.4,0.1c0.1,0,0.3,0,0.4-0.1c0.1-0.1,0.1-0.2,0.1-0.4c0-0.1,0-0.3-0.1-0.4s-0.2-0.1-0.4-0.1
			c-0.1,0-0.3,0-0.4,0.1S40.1,35.3,40.1,35.5z"/>
		<path d="M47.3,38.4c0,0.7-0.3,1.2-0.7,1.5s-1,0.5-1.7,0.5c-0.7,0-1.3-0.2-1.7-0.7c-0.4-0.4-0.6-1-0.6-1.8v-1.2
			c0-0.7,0.2-1.3,0.6-1.8s1-0.7,1.7-0.7c0.7,0,1.3,0.2,1.7,0.5c0.4,0.4,0.6,0.9,0.7,1.5h-1.2c0-0.4-0.1-0.7-0.3-0.9
			s-0.5-0.3-0.9-0.3c-0.4,0-0.6,0.1-0.8,0.4s-0.3,0.7-0.3,1.1V38c0,0.5,0.1,0.8,0.3,1.1c0.2,0.3,0.5,0.4,0.9,0.4
			c0.4,0,0.7-0.1,0.8-0.3c0.2-0.2,0.3-0.5,0.3-0.9H47.3z"/>
	</g>
	<path d="M15.6,12.9l-1.4-0.8l1.5-1c0.2-0.1,0.2-0.4,0.1-0.6c-0.1-0.2-0.4-0.2-0.6-0.1l-1.8,1.2c0,0,0,0,0,0l-2.5-1.4l2.4-1.4
		c0,0,0,0,0.1,0l1.9,1.1c0.1,0,0.1,0.1,0.2,0.1c0.1,0,0.3-0.1,0.3-0.2c0.1-0.2,0.1-0.4-0.1-0.6l-1.6-0.9l1.4-0.8
		c0.2-0.1,0.3-0.4,0.1-0.6c-0.1-0.2-0.4-0.3-0.6-0.1l-1.4,0.8l-0.1-1.8c0-0.2-0.2-0.4-0.4-0.4c-0.2,0-0.4,0.2-0.4,0.4l0.1,2.2
		c0,0,0,0,0,0l-2.5,1.4l0-2.9c0,0,0,0,0.1,0l1.9-1.1c0.2-0.1,0.3-0.4,0.2-0.5c-0.1-0.2-0.4-0.3-0.5-0.2l-1.6,0.9l0-1.6
		c0-0.2-0.2-0.4-0.4-0.4h0c-0.2,0-0.4,0.2-0.4,0.4l0,1.6L8,4.9c-0.2-0.1-0.4,0-0.5,0.2c-0.1,0.2,0,0.4,0.2,0.5l2,1c0,0,0,0,0,0
		l0,2.9L7.2,8.2c0,0,0,0,0-0.1l0-2.2c0-0.2-0.2-0.4-0.4-0.4c-0.2,0-0.4,0.2-0.4,0.4l0,1.8L5,6.9c-0.2-0.1-0.4,0-0.5,0.1
		c-0.1,0.2,0,0.4,0.1,0.5L6,8.4l-1.5,1C4.3,9.5,4.3,9.8,4.4,9.9c0.1,0.1,0.2,0.2,0.3,0.2c0.1,0,0.2,0,0.2-0.1l1.8-1.2c0,0,0,0,0,0
		l2.5,1.4l-2.5,1.5c0,0,0,0,0,0l-1.9-1.1c-0.2-0.1-0.4-0.1-0.6,0.1s-0.1,0.4,0.1,0.6L6,12.2L4.6,13c-0.2,0.1-0.3,0.4-0.1,0.6
		c0.1,0.1,0.2,0.2,0.3,0.2c0.1,0,0.1,0,0.2-0.1l1.4-0.8l0.1,1.8c0,0.2,0.2,0.4,0.4,0.4c0,0,0,0,0,0c0.2,0,0.4-0.2,0.4-0.4l-0.1-2.2
		c0,0,0,0,0,0L9.7,11l0,2.8c0,0,0,0,0,0l-1.9,1.1c-0.2,0.1-0.3,0.4-0.2,0.5c0.1,0.1,0.2,0.2,0.4,0.2c0.1,0,0.1,0,0.2-0.1l1.6-0.9
		l0,1.6c0,0.2,0.2,0.4,0.4,0.4h0c0.2,0,0.4-0.2,0.4-0.4l0-1.6l1.6,0.8c0.1,0,0.1,0,0.2,0c0.1,0,0.3-0.1,0.4-0.2
		c0.1-0.2,0-0.4-0.2-0.5l-2-1c0,0,0,0,0,0l0-2.8l2.5,1.5c0,0,0,0,0,0.1l0,2.2c0,0.2,0.2,0.4,0.4,0.4h0c0.2,0,0.4-0.2,0.4-0.4l0-1.8
		l1.4,0.8c0.1,0,0.1,0.1,0.2,0.1c0.1,0,0.3-0.1,0.4-0.2C15.9,13.3,15.8,13.1,15.6,12.9z"/>
</g>
</svg>
