<svg id="svg" version="1.1" width="1000" height="1000" xmlns="http://www.w3.org/2000/svg" xmlns:xlink="http://www.w3.org/1999/xlink" ><g id="svgg"><path id="path0" d="M0.000 200.000 L 0.000 400.000 200.000 400.000 L 400.000 400.000 400.000 200.000 L 400.000 0.000 200.000 0.000 L 0.000 0.000 0.000 200.000 M396.000 200.000 L 396.000 396.000 200.000 396.000 L 4.000 396.000 4.000 200.000 L 4.000 4.000 200.000 4.000 L 396.000 4.000 396.000 200.000 M237.200 59.827 C 237.200 59.894,236.383 62.959,235.384 66.638 C 233.328 74.212,233.211 73.716,237.200 74.370 C 269.275 79.624,300.011 98.473,320.087 125.200 C 322.318 128.170,324.278 130.758,324.442 130.951 C 324.741 131.301,326.522 130.387,333.502 126.301 L 337.205 124.134 334.736 120.567 C 314.967 92.007,283.952 70.649,250.295 62.416 C 245.265 61.186,237.200 59.591,237.200 59.827 M229.340 93.563 C 228.454 96.883,227.812 99.600,227.913 99.600 C 229.269 99.600,237.720 101.114,241.480 102.031 C 264.451 107.630,285.575 121.037,300.137 139.258 L 303.220 143.117 308.410 140.119 C 314.570 136.561,314.432 137.220,310.148 131.782 C 291.679 108.340,261.816 91.276,233.175 87.797 L 230.950 87.527 229.340 93.563 M223.067 116.992 C 222.470 119.298,221.890 121.420,221.780 121.708 C 221.628 122.103,222.851 122.404,226.743 122.932 C 247.980 125.809,268.172 137.068,280.782 153.063 L 282.408 155.125 286.466 152.781 C 288.697 151.492,290.678 150.282,290.868 150.092 C 291.823 149.137,279.503 136.388,272.644 131.233 C 259.132 121.077,238.019 112.800,225.627 112.800 L 224.154 112.800 223.067 116.992 M63.879 135.654 C 51.735 136.426,40.566 140.410,31.533 147.192 C 27.519 150.206,20.636 156.942,20.882 157.616 C 21.092 158.193,30.570 168.800,30.876 168.800 C 31.039 168.800,31.342 168.485,31.551 168.100 C 32.074 167.132,38.241 161.838,41.070 159.927 C 68.217 141.595,105.336 155.188,99.205 181.217 C 96.372 193.249,86.060 198.386,64.100 198.703 L 52.000 198.878 52.000 206.996 L 52.000 215.114 64.100 215.310 C 80.201 215.571,85.661 216.742,92.889 221.483 C 106.049 230.115,105.152 251.855,91.262 260.928 C 80.162 268.178,60.334 268.372,46.315 261.369 C 40.514 258.471,30.000 250.085,30.000 248.356 C 30.000 247.315,27.107 250.009,20.625 257.088 L 18.712 259.177 20.711 261.688 C 43.190 289.933,98.399 289.763,114.856 261.398 C 127.784 239.114,115.808 212.031,90.800 206.998 C 89.370 206.711,88.492 206.458,88.849 206.438 C 94.018 206.138,104.866 199.992,110.161 194.364 C 121.954 181.828,120.130 158.813,106.430 147.263 C 96.069 138.529,81.440 134.538,63.879 135.654 M206.400 135.641 C 172.469 139.456,147.273 164.232,142.983 198.000 C 137.080 244.465,167.750 281.533,213.057 282.693 C 235.949 283.279,253.004 276.845,268.300 261.852 L 271.600 258.618 271.600 232.709 L 271.600 206.800 238.200 206.800 L 204.800 206.800 204.800 214.800 L 204.800 222.800 229.200 222.800 L 253.600 222.800 253.600 237.163 L 253.600 251.526 251.543 253.375 C 234.158 269.006,205.687 271.142,186.164 258.280 C 155.288 237.939,152.158 188.648,180.200 164.358 C 201.544 145.870,234.698 147.316,253.700 167.563 C 255.405 169.380,256.959 170.807,257.153 170.733 C 258.127 170.365,271.180 162.159,271.189 161.909 C 271.213 161.277,260.416 150.811,257.553 148.691 C 243.281 138.122,225.249 133.522,206.400 135.641 M330.800 180.400 L 330.800 202.400 310.189 202.400 L 289.578 202.400 289.689 208.100 L 289.800 213.800 310.300 213.904 L 330.800 214.007 330.800 236.604 L 330.800 259.200 337.000 259.200 L 343.200 259.200 343.200 236.604 L 343.200 214.007 363.700 213.904 L 384.200 213.800 384.311 208.100 L 384.422 202.400 363.811 202.400 L 343.200 202.400 343.200 180.400 L 343.200 158.400 337.000 158.400 L 330.800 158.400 330.800 180.400 " stroke="none" fill="#000000" fill-rule="evenodd"></path></g></svg>