<svg id="svg" version="1.1" width="400" height="400" xmlns="http://www.w3.org/2000/svg" xmlns:xlink="http://www.w3.org/1999/xlink" ><g id="svgg"><path id="path0" d="M0.000 200.000 L 0.000 400.000 200.000 400.000 L 400.000 400.000 400.000 200.000 L 400.000 0.000 200.000 0.000 L 0.000 0.000 0.000 200.000 M396.000 200.000 L 396.000 396.000 200.000 396.000 L 4.000 396.000 4.000 200.000 L 4.000 4.000 200.000 4.000 L 396.000 4.000 396.000 200.000 M232.600 31.886 C 217.239 34.010,208.551 47.656,214.896 59.695 C 217.840 65.280,222.161 67.674,237.186 72.046 C 251.444 76.195,254.800 78.701,254.800 85.200 C 254.800 98.970,232.075 101.644,218.577 89.462 C 217.132 88.158,215.809 87.250,215.637 87.445 C 214.159 89.123,210.800 93.638,210.800 93.946 C 210.800 95.962,220.358 102.098,226.079 103.754 C 247.441 109.939,265.255 100.266,264.299 83.000 C 263.693 72.055,257.904 67.591,236.523 61.577 C 226.446 58.743,222.400 55.767,222.400 51.190 C 222.400 38.623,242.729 35.827,255.460 46.643 L 257.519 48.393 260.160 45.161 C 263.307 41.307,263.260 41.658,260.900 39.691 C 253.442 33.473,242.648 30.496,232.600 31.886 M91.298 68.500 L 91.400 104.200 95.900 104.313 L 100.400 104.426 100.400 88.013 L 100.400 71.600 119.000 71.600 L 137.600 71.600 137.600 67.600 L 137.600 63.600 119.000 63.600 L 100.400 63.600 100.400 52.200 L 100.400 40.800 119.400 40.800 L 138.400 40.800 138.400 36.800 L 138.400 32.800 114.798 32.800 L 91.196 32.800 91.298 68.500 M153.293 67.900 C 145.550 87.205,139.100 103.320,138.960 103.712 C 138.723 104.375,139.069 104.416,143.995 104.312 L 149.285 104.200 152.401 96.400 L 155.516 88.600 173.077 88.496 L 190.638 88.392 193.819 96.296 L 197.000 104.200 202.100 104.312 C 206.181 104.402,207.200 104.316,207.200 103.881 C 207.200 103.583,200.881 87.693,193.158 68.569 C 185.435 49.446,179.026 33.575,178.915 33.300 C 178.768 32.933,177.206 32.800,173.043 32.800 L 167.371 32.800 153.293 67.900 M272.000 36.800 L 272.000 40.800 283.200 40.800 L 294.400 40.800 294.400 72.613 L 294.400 104.426 298.900 104.313 L 303.400 104.200 303.502 72.500 L 303.605 40.800 314.802 40.800 L 326.000 40.800 326.000 36.800 L 326.000 32.800 299.000 32.800 L 272.000 32.800 272.000 36.800 M180.545 61.432 C 184.425 71.350,187.600 79.585,187.600 79.732 C 187.600 79.880,181.015 80.000,172.967 80.000 C 163.908 80.000,158.384 79.855,158.467 79.620 C 160.141 74.854,173.069 42.919,173.244 43.118 C 173.380 43.273,176.665 51.515,180.545 61.432 M189.741 123.197 C 188.773 123.588,152.680 159.530,152.023 160.758 C 151.781 161.209,151.600 164.046,151.600 167.374 L 151.600 173.200 145.700 173.203 C 140.758 173.205,139.631 173.318,138.757 173.903 C 137.296 174.880,99.022 213.237,98.460 214.288 C 97.510 216.063,97.837 285.037,98.800 286.000 C 99.595 286.795,100.133 286.800,178.384 286.800 L 257.169 286.800 257.984 285.925 C 258.789 285.061,258.800 284.678,258.800 256.525 L 258.800 228.000 278.756 228.000 C 297.172 228.000,298.777 227.946,299.558 227.300 L 300.405 226.600 300.415 175.400 L 300.424 124.200 299.568 123.500 C 298.622 122.727,191.637 122.432,189.741 123.197 M294.800 175.200 L 294.800 222.000 276.800 222.000 L 258.800 222.000 258.800 214.800 L 258.800 207.600 270.341 207.600 C 281.692 207.600,281.904 207.585,283.235 206.688 C 285.685 205.037,285.588 206.299,285.594 175.959 L 285.600 148.118 284.688 146.765 C 283.037 144.315,284.319 144.412,253.725 144.406 L 225.649 144.400 224.475 145.500 C 222.411 147.432,222.400 147.517,222.400 160.774 L 222.400 173.200 189.800 173.200 L 157.200 173.200 157.200 168.702 L 157.200 164.203 175.098 146.302 L 192.997 128.400 243.898 128.400 L 294.800 128.400 294.800 175.200 M280.000 165.600 L 280.000 180.800 269.384 180.800 L 258.768 180.800 258.864 178.011 C 258.948 175.553,258.847 175.101,258.010 174.211 L 257.061 173.200 242.530 173.200 L 228.000 173.200 228.000 172.000 L 228.000 170.800 246.383 170.800 L 264.766 170.800 266.383 169.262 L 268.000 167.724 268.000 159.062 L 268.000 150.400 274.000 150.400 L 280.000 150.400 280.000 165.600 M242.800 158.009 L 242.800 165.218 235.700 165.109 L 228.600 165.000 228.491 157.900 L 228.382 150.800 235.591 150.800 L 242.800 150.800 242.800 158.009 M262.000 158.000 L 262.000 165.200 255.600 165.200 L 249.200 165.200 249.200 158.000 L 249.200 150.800 255.600 150.800 L 262.000 150.800 262.000 158.000 M252.800 230.200 L 252.800 280.800 178.400 280.800 L 104.000 280.800 104.000 249.250 L 104.000 217.699 123.053 198.650 L 142.106 179.600 197.453 179.600 L 252.800 179.600 252.800 230.200 M259.098 197.879 C 259.026 200.036,258.967 198.380,258.967 194.200 C 258.966 190.020,259.025 188.256,259.098 190.279 C 259.170 192.303,259.171 195.723,259.098 197.879 M279.509 194.100 L 279.400 201.400 272.300 201.509 L 265.200 201.618 265.200 194.209 L 265.200 186.800 272.409 186.800 L 279.618 186.800 279.509 194.100 M177.082 197.543 C 174.277 199.392,174.400 197.866,174.400 230.906 L 174.400 260.614 175.411 262.103 C 177.348 264.952,175.472 264.800,208.600 264.800 C 241.728 264.800,239.852 264.952,241.789 262.103 L 242.800 260.614 242.800 230.924 C 242.800 197.983,242.922 199.535,240.175 197.643 C 238.374 196.403,178.954 196.308,177.082 197.543 M236.704 219.689 L 236.809 236.378 216.904 236.489 C 191.415 236.631,193.600 235.381,193.600 249.823 L 193.600 258.820 187.100 258.710 L 180.600 258.600 180.496 241.900 L 180.391 225.200 199.896 225.199 C 225.521 225.197,223.596 226.277,223.599 211.890 L 223.600 202.780 230.100 202.890 L 236.600 203.000 236.704 219.689 M196.800 211.208 L 196.800 219.217 188.900 219.108 L 181.000 219.000 180.892 211.100 L 180.783 203.200 188.792 203.200 L 196.800 203.200 196.800 211.208 M217.508 211.100 L 217.400 219.000 210.300 219.109 L 203.200 219.218 203.200 211.209 L 203.200 203.200 210.408 203.200 L 217.617 203.200 217.508 211.100 M214.400 250.409 L 214.400 258.418 207.100 258.309 L 199.800 258.200 199.691 250.813 C 199.630 246.750,199.670 243.195,199.778 242.913 C 199.928 242.522,201.690 242.400,207.187 242.400 L 214.400 242.400 214.400 250.409 M236.200 250.400 L 236.200 258.200 228.300 258.308 L 220.400 258.417 220.400 250.400 L 220.400 242.383 228.300 242.492 L 236.200 242.600 236.200 250.400 M90.200 299.822 C 89.760 299.924,88.410 300.204,87.200 300.444 C 73.865 303.089,66.513 316.152,72.005 327.442 C 74.786 333.159,79.343 335.696,94.956 340.222 C 108.709 344.209,112.084 346.769,112.053 353.188 C 111.984 367.571,88.655 369.615,74.707 356.460 C 73.886 355.686,73.150 355.130,73.070 355.226 C 71.369 357.278,68.000 361.786,68.000 362.011 C 68.000 363.688,77.239 369.861,82.018 371.377 C 103.623 378.232,122.198 368.864,121.525 351.452 C 121.084 340.059,116.105 336.119,93.856 329.559 C 80.720 325.687,77.381 321.824,80.855 314.518 C 84.944 305.914,102.221 305.749,112.203 314.218 L 114.750 316.378 117.415 313.182 C 120.493 309.491,120.495 309.535,117.124 306.840 C 110.607 301.631,97.324 298.169,90.200 299.822 M128.000 301.177 C 128.000 301.726,147.536 370.432,147.995 371.500 C 148.366 372.362,148.587 372.400,153.173 372.400 L 157.962 372.400 158.378 370.900 C 158.606 370.075,162.074 357.388,166.084 342.707 C 170.093 328.026,173.495 316.146,173.642 316.307 C 173.789 316.468,177.326 329.110,181.501 344.400 L 189.093 372.200 194.037 372.200 L 198.982 372.200 209.085 336.800 C 214.642 317.330,219.191 301.260,219.194 301.088 C 219.197 300.916,216.912 300.826,214.116 300.888 L 209.032 301.000 201.416 329.895 C 197.227 345.788,193.710 358.791,193.600 358.791 C 193.490 358.791,190.895 349.658,187.834 338.496 C 184.773 327.333,181.190 314.285,179.872 309.500 L 177.476 300.800 173.600 300.800 L 169.724 300.800 167.328 309.500 C 166.010 314.285,162.427 327.333,159.366 338.496 C 156.305 349.658,153.710 358.791,153.600 358.791 C 153.490 358.790,150.174 346.597,146.231 331.695 C 142.287 316.793,138.815 303.745,138.515 302.700 L 137.969 300.800 132.985 300.800 C 130.130 300.800,128.000 300.961,128.000 301.177 M230.925 335.895 C 223.184 355.203,216.794 371.270,216.725 371.600 C 216.619 372.109,217.382 372.200,221.742 372.200 L 226.884 372.200 230.000 364.400 L 233.116 356.600 250.714 356.496 L 268.312 356.392 271.478 364.296 L 274.644 372.200 279.589 372.313 C 282.309 372.375,284.659 372.285,284.811 372.113 C 284.963 371.941,278.647 355.870,270.777 336.400 L 256.466 301.000 250.733 300.895 L 245.000 300.791 230.925 335.895 M294.000 336.600 L 294.000 372.400 298.600 372.400 L 303.200 372.400 303.200 358.235 L 303.200 344.069 315.500 343.903 C 328.964 343.721,329.791 343.599,334.526 341.092 C 346.773 334.608,348.937 316.129,338.583 306.444 C 333.001 301.222,330.953 300.813,310.300 300.806 L 294.000 300.800 294.000 336.600 M323.933 309.206 C 337.212 310.930,340.128 328.683,328.062 334.339 C 325.806 335.397,325.771 335.400,314.500 335.523 L 303.200 335.646 303.200 322.223 L 303.200 308.800 312.100 308.812 C 316.995 308.819,322.320 308.996,323.933 309.206 M258.023 329.000 C 261.815 338.680,265.001 346.915,265.105 347.300 C 265.282 347.957,264.399 348.000,250.613 348.000 C 242.500 348.000,235.993 347.845,236.067 347.653 C 241.129 334.496,250.673 310.947,250.865 311.137 C 251.011 311.282,254.232 319.320,258.023 329.000 " stroke="none" fill="#000000" fill-rule="evenodd"></path></g></svg>