<svg id="svg" version="1.1" width="1000" height="1000" xmlns="http://www.w3.org/2000/svg" xmlns:xlink="http://www.w3.org/1999/xlink" ><g id="svgg"><path id="path0" d="M0.000 200.000 L 0.000 400.000 200.000 400.000 L 400.000 400.000 400.000 200.000 L 400.000 0.000 200.000 0.000 L 0.000 0.000 0.000 200.000 M396.000 200.000 L 396.000 396.000 200.000 396.000 L 4.000 396.000 4.000 200.000 L 4.000 4.000 200.000 4.000 L 396.000 4.000 396.000 200.000 M198.543 61.597 C 196.383 62.468,196.400 62.306,196.400 81.920 L 196.400 100.062 197.569 101.231 C 199.315 102.977,203.157 102.525,203.750 100.504 C 203.864 100.117,204.076 91.700,204.223 81.800 L 204.489 63.800 203.606 62.875 C 202.138 61.338,200.321 60.879,198.543 61.597 M77.054 105.629 L 76.000 106.458 76.000 132.660 L 76.000 158.862 77.169 160.031 C 78.886 161.748,82.593 161.359,83.352 159.382 C 83.488 159.026,83.600 148.309,83.600 135.567 L 83.600 112.400 138.171 112.400 C 188.420 112.400,192.795 112.348,193.405 111.738 C 195.130 110.013,195.094 107.004,193.331 105.617 C 192.296 104.803,192.090 104.800,135.200 104.800 L 78.108 104.800 77.054 105.629 M206.995 105.462 C 205.270 107.187,205.306 110.196,207.069 111.583 C 208.104 112.397,208.329 112.400,262.454 112.400 L 316.800 112.400 316.800 135.631 L 316.800 158.862 317.969 160.031 C 319.686 161.748,323.393 161.359,324.152 159.382 C 324.288 159.026,324.400 146.972,324.400 132.596 L 324.400 106.458 323.346 105.629 L 322.292 104.800 264.975 104.800 C 212.171 104.800,207.605 104.852,206.995 105.462 M198.200 114.862 C 196.367 115.865,196.400 115.441,196.400 137.707 L 196.400 158.862 197.569 160.031 C 199.286 161.748,202.993 161.359,203.752 159.382 C 203.888 159.026,204.000 149.285,204.000 137.737 L 204.000 116.738 202.831 115.569 C 201.577 114.316,199.718 114.032,198.200 114.862 M56.200 170.666 C 51.849 172.965,52.000 171.991,52.000 197.800 C 52.000 228.824,48.776 225.600,79.796 225.600 C 110.825 225.600,107.600 228.825,107.600 197.800 C 107.600 172.163,107.711 172.899,103.516 170.757 C 101.420 169.688,58.210 169.604,56.200 170.666 M176.600 170.666 C 172.249 172.965,172.400 171.991,172.400 197.800 C 172.400 228.824,169.176 225.600,200.196 225.600 C 231.225 225.600,228.000 228.825,228.000 197.800 C 228.000 172.163,228.111 172.899,223.916 170.757 C 221.820 169.688,178.610 169.604,176.600 170.666 M297.000 170.666 C 292.649 172.965,292.800 171.991,292.800 197.800 C 292.800 228.824,289.576 225.600,320.596 225.600 C 351.625 225.600,348.400 228.825,348.400 197.800 C 348.400 172.163,348.511 172.899,344.316 170.757 C 342.220 169.688,299.010 169.604,297.000 170.666 M99.800 197.800 L 99.800 217.800 79.800 217.800 L 59.800 217.800 59.696 198.200 C 59.639 187.420,59.679 178.373,59.785 178.096 C 59.937 177.699,64.173 177.614,79.889 177.696 L 99.800 177.800 99.800 197.800 M220.200 197.800 L 220.200 217.800 200.200 217.800 L 180.200 217.800 180.096 198.200 C 180.039 187.420,180.079 178.373,180.185 178.096 C 180.337 177.699,184.573 177.614,200.289 177.696 L 220.200 177.800 220.200 197.800 M340.600 197.800 L 340.600 217.800 320.600 217.800 L 300.600 217.800 300.496 198.200 C 300.439 187.420,300.479 178.373,300.585 178.096 C 300.737 177.699,304.973 177.614,320.689 177.696 L 340.600 177.800 340.600 197.800 M117.200 259.827 C 110.371 261.015,106.105 263.010,102.370 266.759 C 94.202 274.959,95.453 288.240,104.929 293.933 C 108.212 295.905,112.187 297.419,119.933 299.647 C 131.148 302.873,133.270 303.752,136.137 306.364 C 141.866 311.585,138.583 321.483,130.254 324.102 C 121.117 326.976,110.077 324.186,102.059 316.977 C 100.827 315.870,99.819 315.236,99.666 315.473 C 99.520 315.697,98.322 317.282,97.003 318.994 L 94.607 322.107 97.203 324.499 C 106.980 333.507,124.802 336.230,137.079 330.593 C 149.360 324.955,152.551 308.551,143.190 299.190 C 139.800 295.800,135.332 293.891,120.656 289.561 C 109.427 286.248,106.646 284.087,106.695 278.713 C 106.805 266.700,127.644 263.957,139.318 274.419 C 140.593 275.562,141.683 276.430,141.739 276.348 C 141.796 276.267,143.045 274.736,144.516 272.947 L 147.191 269.694 145.407 268.049 C 138.825 261.982,126.111 258.276,117.200 259.827 M270.332 259.982 C 247.304 264.203,244.264 287.659,265.797 294.979 C 266.433 295.195,266.066 295.472,263.984 296.351 C 239.099 306.849,250.498 335.858,278.548 333.411 C 304.330 331.162,310.428 305.576,287.411 296.221 L 285.180 295.314 287.524 294.460 C 303.835 288.513,305.155 269.974,289.794 262.584 C 284.842 260.202,275.758 258.988,270.332 259.982 M34.098 296.500 L 34.200 332.200 38.700 332.313 L 43.200 332.426 43.200 318.204 L 43.200 303.982 50.291 304.091 L 57.382 304.200 65.848 317.400 C 70.504 324.660,74.612 331.005,74.976 331.500 C 75.700 332.486,86.000 332.948,86.000 331.995 C 86.000 331.772,82.431 326.237,78.070 319.695 C 73.708 313.153,69.495 306.787,68.706 305.549 L 67.272 303.297 69.936 302.643 C 90.926 297.488,90.539 266.801,69.416 261.409 C 67.471 260.912,63.990 260.800,50.514 260.800 L 33.996 260.800 34.098 296.500 M203.700 283.811 L 188.400 306.799 188.400 310.399 L 188.400 314.000 205.400 314.000 L 222.400 314.000 222.400 323.200 L 222.400 332.400 227.000 332.400 L 231.600 332.400 231.600 323.200 L 231.600 314.000 236.600 314.000 L 241.600 314.000 241.600 310.000 L 241.600 306.000 236.600 306.000 L 231.600 306.000 231.600 283.400 L 231.600 260.800 225.300 260.811 L 219.000 260.823 203.700 283.811 M316.000 280.118 L 316.000 299.435 319.399 300.542 L 322.798 301.649 324.699 300.068 C 334.630 291.806,350.681 294.210,354.266 304.495 C 360.486 322.338,336.919 332.618,322.018 318.562 C 318.748 315.476,319.506 315.422,316.289 318.974 L 313.595 321.949 315.780 324.309 C 324.349 333.565,341.209 336.299,352.586 330.278 C 367.704 322.277,368.499 298.927,353.948 290.287 C 345.636 285.352,333.983 285.950,326.700 291.686 L 325.200 292.867 325.200 280.834 L 325.200 268.800 342.600 268.800 L 360.000 268.800 360.000 264.800 L 360.000 260.800 338.000 260.800 L 316.000 260.800 316.000 280.118 M281.416 268.621 C 293.357 271.730,294.763 283.637,283.805 288.853 C 277.293 291.954,275.375 291.995,268.614 289.180 C 252.089 282.301,263.511 263.958,281.416 268.621 M64.114 269.208 C 77.451 271.137,80.213 288.921,68.049 294.545 C 66.319 295.345,65.459 295.408,54.700 295.523 L 43.200 295.645 43.200 282.223 L 43.200 268.800 52.300 268.808 C 57.305 268.812,62.621 268.992,64.114 269.208 M222.265 305.868 C 222.186 305.947,216.719 305.964,210.116 305.906 L 198.111 305.800 210.156 287.906 L 222.200 270.013 222.304 287.869 C 222.361 297.690,222.344 305.790,222.265 305.868 M279.383 300.212 C 295.313 304.362,296.617 320.508,281.338 324.416 C 266.255 328.274,253.492 316.022,262.419 306.255 C 267.157 301.071,273.714 298.736,279.383 300.212 M156.400 306.200 L 156.400 310.000 169.400 310.000 L 182.400 310.000 182.400 306.200 L 182.400 302.400 169.400 302.400 L 156.400 302.400 156.400 306.200 " stroke="none" fill="#000000" fill-rule="evenodd"></path></g></svg>