<svg id="svg" version="1.1" width="1000" height="1000" xmlns="http://www.w3.org/2000/svg" xmlns:xlink="http://www.w3.org/1999/xlink" ><g id="svgg"><path id="path0" d="M0.000 200.000 L 0.000 400.000 200.000 400.000 L 400.000 400.000 400.000 200.000 L 400.000 0.000 200.000 0.000 L 0.000 0.000 0.000 200.000 M392.800 4.100 C 392.800 4.155,305.320 91.680,198.400 198.600 L 4.000 393.000 4.000 198.500 L 4.000 4.000 198.400 4.000 C 305.320 4.000,392.800 4.045,392.800 4.100 M396.000 201.600 L 396.000 396.000 201.500 396.000 L 7.000 396.000 201.400 201.600 C 308.320 94.680,395.845 7.200,395.900 7.200 C 395.955 7.200,396.000 94.680,396.000 201.600 M42.800 116.421 L 42.800 170.095 64.700 169.881 C 92.149 169.612,96.278 168.996,106.731 163.610 C 146.789 142.968,142.186 79.982,99.583 65.794 C 91.493 63.100,91.243 63.079,65.900 62.905 L 42.800 62.748 42.800 116.421 M154.800 116.410 L 154.800 170.019 161.500 169.910 L 168.200 169.800 168.301 116.300 L 168.403 62.800 161.601 62.800 L 154.800 62.800 154.800 116.410 M84.200 75.217 C 91.815 75.936,98.290 78.084,103.358 81.571 C 124.849 96.357,125.822 133.210,105.149 149.385 C 96.638 156.045,89.913 157.594,69.500 157.598 L 56.400 157.600 56.400 116.200 L 56.400 74.800 68.100 74.800 C 74.535 74.801,81.780 74.988,84.200 75.217 M322.800 255.870 C 298.061 257.667,279.441 274.933,275.155 300.051 C 268.294 340.266,297.398 371.523,336.400 365.826 C 365.275 361.608,383.983 334.631,380.015 302.934 C 376.268 273.008,352.788 253.693,322.800 255.870 M166.499 311.076 L 166.600 364.600 183.200 364.715 C 207.956 364.888,214.600 364.340,223.469 361.394 C 269.582 346.080,269.673 276.441,223.600 260.678 C 215.579 257.934,214.879 257.873,189.499 257.705 L 166.397 257.553 166.499 311.076 M337.527 269.172 C 373.839 278.222,376.717 339.024,341.440 351.829 C 316.543 360.866,292.315 345.476,288.813 318.400 C 284.578 285.661,308.143 261.848,337.527 269.172 M213.400 270.713 C 227.411 273.792,238.049 283.591,241.939 297.000 C 248.466 319.503,238.561 342.558,219.355 349.567 C 212.856 351.939,211.514 352.090,195.100 352.289 L 180.000 352.473 180.000 310.988 L 180.000 269.503 194.900 269.713 C 207.742 269.893,210.297 270.032,213.400 270.713 " stroke="none" fill="#000000" fill-rule="evenodd"></path></g></svg>