<svg id="svg" version="1.1" width="1000" height="1000" xmlns="http://www.w3.org/2000/svg" xmlns:xlink="http://www.w3.org/1999/xlink" ><g id="svgg"><path id="path0" d="M0.000 200.000 L 0.000 400.000 200.000 400.000 L 400.000 400.000 400.000 200.000 L 400.000 0.000 200.000 0.000 L 0.000 0.000 0.000 200.000 M396.000 200.000 L 396.000 396.000 200.000 396.000 L 4.000 396.000 4.000 200.000 L 4.000 4.000 200.000 4.000 L 396.000 4.000 396.000 200.000 M180.943 98.778 C 179.001 99.604,178.800 100.479,178.800 108.120 L 178.800 115.262 179.969 116.431 C 181.583 118.044,183.617 118.044,185.231 116.431 L 186.400 115.262 186.400 108.053 C 186.400 99.263,185.080 97.019,180.943 98.778 M148.600 110.778 C 144.385 112.503,145.250 115.470,151.900 122.086 C 158.157 128.312,160.047 129.146,162.304 126.679 C 164.645 124.120,163.933 122.515,157.700 116.314 C 152.011 110.654,150.761 109.894,148.600 110.778 M213.000 112.206 C 211.283 113.113,204.125 120.329,203.376 121.908 C 201.879 125.062,204.786 128.327,208.114 127.229 C 209.705 126.703,217.772 118.703,218.396 117.031 C 219.641 113.698,216.125 110.555,213.000 112.206 M177.000 122.964 C 167.410 125.176,159.960 131.952,157.232 140.942 C 156.447 143.529,156.400 144.618,156.400 160.162 L 156.400 176.639 155.039 177.131 C 151.357 178.463,150.000 180.851,150.000 186.000 C 150.000 193.354,152.203 195.200,160.980 195.200 L 166.400 195.200 166.400 229.146 C 166.400 262.883,166.405 263.099,167.229 264.146 L 168.058 265.200 182.860 265.200 L 197.662 265.200 198.831 264.031 C 200.444 262.417,200.444 260.383,198.831 258.769 L 197.662 257.600 185.831 257.600 L 174.000 257.600 174.000 226.400 L 174.000 195.200 183.000 195.200 L 192.000 195.200 192.000 216.000 L 192.000 236.800 188.222 236.800 C 183.423 236.800,182.200 237.571,182.200 240.600 C 182.200 243.992,183.128 244.400,190.853 244.400 L 197.262 244.400 198.431 243.231 L 199.600 242.062 199.600 218.631 L 199.600 195.200 204.820 195.200 C 213.376 195.200,215.600 193.302,215.600 186.000 C 215.600 180.491,213.040 176.800,209.220 176.800 C 208.407 176.800,208.400 176.667,208.400 160.221 C 208.400 143.666,208.399 143.637,207.404 140.489 C 203.485 128.084,189.572 120.064,177.000 122.964 M56.099 201.300 L 56.200 272.600 98.200 272.600 L 140.200 272.600 140.308 264.500 L 140.417 256.400 107.208 256.400 L 74.000 256.400 74.000 193.200 L 74.000 130.000 64.999 130.000 L 55.998 130.000 56.099 201.300 M238.000 201.441 L 238.000 272.883 266.300 272.688 C 299.774 272.457,302.922 272.159,314.561 268.120 C 367.721 249.676,376.511 173.277,329.114 141.638 C 314.072 131.596,305.334 130.000,265.416 130.000 L 238.000 130.000 238.000 201.441 M186.080 130.846 C 193.013 132.304,198.896 138.187,200.354 145.120 C 200.636 146.458,200.800 152.688,200.800 162.020 L 200.800 176.800 182.400 176.800 L 164.000 176.800 164.000 162.020 C 164.000 152.514,164.162 146.483,164.454 145.120 C 166.548 135.331,176.422 128.814,186.080 130.846 M177.341 134.572 C 171.859 136.287,168.085 141.650,167.695 148.282 C 167.247 155.883,174.555 156.436,175.554 148.876 C 176.168 144.235,178.012 142.356,182.504 141.795 C 186.563 141.288,188.225 137.764,185.631 135.169 C 184.292 133.830,180.570 133.562,177.341 134.572 M134.122 144.165 C 133.190 144.967,133.000 145.448,133.000 147.000 C 133.000 150.530,133.729 150.800,143.253 150.800 L 151.262 150.800 152.431 149.631 C 153.296 148.765,153.600 148.082,153.600 147.000 C 153.600 145.918,153.296 145.235,152.431 144.369 L 151.262 143.200 143.253 143.200 C 135.364 143.200,135.228 143.214,134.122 144.165 M212.122 144.165 C 211.190 144.967,211.000 145.448,211.000 147.000 C 211.000 150.530,211.729 150.800,221.253 150.800 L 229.262 150.800 230.431 149.631 C 231.296 148.765,231.600 148.082,231.600 147.000 C 231.600 145.918,231.296 145.235,230.431 144.369 L 229.262 143.200 221.253 143.200 C 213.364 143.200,213.228 143.214,212.122 144.165 M292.624 146.417 C 320.268 148.662,338.534 167.384,340.829 195.825 C 343.215 225.396,326.919 249.355,300.600 254.969 C 295.061 256.150,290.332 256.398,273.300 256.399 L 256.000 256.400 256.000 201.200 L 256.000 146.000 271.742 146.000 C 280.400 146.000,289.797 146.188,292.624 146.417 M207.603 185.206 C 208.920 187.666,209.761 187.588,182.200 187.588 C 154.639 187.588,155.480 187.666,156.797 185.206 C 157.213 184.427,157.695 184.412,182.200 184.412 C 206.705 184.412,207.187 184.427,207.603 185.206 " stroke="none" fill="#000000" fill-rule="evenodd"></path></g></svg>