<?xml version="1.0" encoding="iso-8859-1"?>
<!-- Generator: Adobe Illustrator 18.1.1, SVG Export Plug-In . SVG Version: 6.00 Build 0)  -->
<svg version="1.1" id="Layer_1" xmlns="http://www.w3.org/2000/svg" xmlns:xlink="http://www.w3.org/1999/xlink" x="0px" y="0px"
	 width="50px" height="50px" viewBox="0 0 50 50" enable-background="new 0 0 50 50" xml:space="preserve">
<polyline fill="none" stroke="#000000" stroke-width="1.5" points="32,41.7 6.4,41.7 6.4,13.6 "/>
<g>
	<rect x="4.3" y="4.8" fill="none" stroke="#000000" width="12.3" height="8.8"/>
	<line fill="none" stroke="#000000" x1="7.3" y1="6.7" x2="16.6" y2="6.7"/>
	<line fill="none" stroke="#000000" x1="7.3" y1="11.6" x2="16.6" y2="11.6"/>
	<line fill="none" stroke="#000000" x1="7.3" y1="5.1" x2="7.3" y2="13.4"/>
</g>
<g>
	<g>
		<path d="M15,25h-1.2v-5h-2.4v5h-1.2v-5.9H15V25z"/>
		<path d="M20,22.9c0,0.7-0.1,1.2-0.4,1.6c-0.3,0.4-0.7,0.6-1.3,0.6c-0.2,0-0.4,0-0.6-0.1c-0.2-0.1-0.3-0.2-0.4-0.4l0,0v2.1H16v-6.1
			h1.1l0.1,0.5c0.1-0.2,0.3-0.3,0.5-0.4c0.2-0.1,0.4-0.2,0.6-0.2c0.6,0,1,0.2,1.3,0.6C19.9,21.6,20,22.1,20,22.9L20,22.9z
			 M18.8,22.8c0-0.4-0.1-0.8-0.2-1c-0.1-0.3-0.3-0.4-0.6-0.4c-0.2,0-0.3,0-0.5,0.1c-0.1,0.1-0.2,0.2-0.3,0.3v1.9
			c0.1,0.1,0.2,0.2,0.3,0.3s0.3,0.1,0.5,0.1c0.3,0,0.5-0.1,0.6-0.3C18.8,23.6,18.8,23.3,18.8,22.8L18.8,22.8z"/>
		<path d="M20.5,22.8c0-0.7,0.2-1.2,0.5-1.6c0.4-0.4,0.9-0.6,1.5-0.6c0.7,0,1.2,0.2,1.5,0.6c0.4,0.4,0.5,0.9,0.5,1.6v0.1
			c0,0.7-0.2,1.2-0.5,1.6c-0.4,0.4-0.9,0.6-1.5,0.6c-0.7,0-1.2-0.2-1.5-0.6C20.7,24.1,20.5,23.5,20.5,22.8L20.5,22.8z M21.7,22.9
			c0,0.4,0.1,0.7,0.2,1s0.4,0.4,0.7,0.4c0.3,0,0.5-0.1,0.7-0.4c0.1-0.2,0.2-0.6,0.2-1v-0.1c0-0.4-0.1-0.7-0.2-1
			c-0.1-0.2-0.4-0.4-0.7-0.4c-0.3,0-0.5,0.1-0.7,0.4C21.8,22.1,21.7,22.4,21.7,22.9L21.7,22.9z"/>
		<path d="M28.9,21.5h-1.4V25h-1.2v-3.5H25v-0.9h4V21.5z"/>
		<path d="M29.2,22.8c0-0.7,0.2-1.2,0.5-1.6c0.4-0.4,0.9-0.6,1.5-0.6c0.7,0,1.2,0.2,1.5,0.6c0.4,0.4,0.5,0.9,0.5,1.6v0.1
			c0,0.7-0.2,1.2-0.5,1.6c-0.4,0.4-0.9,0.6-1.5,0.6c-0.7,0-1.2-0.2-1.5-0.6C29.4,24.1,29.2,23.5,29.2,22.8L29.2,22.8z M30.4,22.9
			c0,0.4,0.1,0.7,0.2,1s0.4,0.4,0.7,0.4c0.3,0,0.5-0.1,0.7-0.4c0.1-0.2,0.2-0.6,0.2-1v-0.1c0-0.4-0.1-0.7-0.2-1
			c-0.1-0.2-0.4-0.4-0.7-0.4c-0.3,0-0.5,0.1-0.7,0.4C30.5,22.1,30.4,22.4,30.4,22.9L30.4,22.9z"/>
		<path d="M35.8,23.4h-0.5V25h-1.2v-4.4h1.2v1.7h0.4l0.9-1.7h1.5l-1.4,2.1l1.6,2.3h-1.6L35.8,23.4z"/>
		<path d="M38.4,22.8c0-0.7,0.2-1.2,0.5-1.6c0.4-0.4,0.9-0.6,1.5-0.6c0.7,0,1.2,0.2,1.5,0.6c0.4,0.4,0.5,0.9,0.5,1.6v0.1
			c0,0.7-0.2,1.2-0.5,1.6c-0.4,0.4-0.9,0.6-1.5,0.6c-0.7,0-1.2-0.2-1.5-0.6C38.5,24.1,38.4,23.5,38.4,22.8L38.4,22.8z M39.5,22.9
			c0,0.4,0.1,0.7,0.2,1s0.4,0.4,0.7,0.4c0.3,0,0.5-0.1,0.7-0.4c0.1-0.2,0.2-0.6,0.2-1v-0.1c0-0.4-0.1-0.7-0.2-1
			c-0.1-0.2-0.4-0.4-0.7-0.4c-0.3,0-0.5,0.1-0.7,0.4C39.6,22.1,39.5,22.4,39.5,22.9L39.5,22.9z"/>
		<path d="M47,20.6V25h-1.2v-3.5h-1l0,1c0,0.9-0.2,1.5-0.4,1.9C44.1,24.8,43.6,25,43,25h-0.2l0-0.9l0.1,0c0.3,0,0.4-0.1,0.5-0.3
			c0.1-0.2,0.1-0.6,0.1-1.3l0.1-1.9H47z"/>
		<path d="M11.8,27.6l1.5,4.4h0l1.5-4.4h1.5v5.9h-1.2v-1.8l0.1-2.6l0,0l-1.6,4.4h-0.8l-1.6-4.4l0,0l0.1,2.6v1.8h-1.2v-5.9H11.8z"/>
		<path d="M17.2,31.2c0-0.7,0.2-1.2,0.5-1.6c0.4-0.4,0.9-0.6,1.5-0.6c0.7,0,1.2,0.2,1.5,0.6c0.4,0.4,0.5,0.9,0.5,1.6v0.1
			c0,0.7-0.2,1.2-0.5,1.6c-0.4,0.4-0.9,0.6-1.5,0.6c-0.7,0-1.2-0.2-1.5-0.6C17.4,32.5,17.2,32,17.2,31.2L17.2,31.2z M18.4,31.3
			c0,0.4,0.1,0.7,0.2,1s0.4,0.4,0.7,0.4c0.3,0,0.5-0.1,0.7-0.4c0.1-0.2,0.2-0.6,0.2-1v-0.1c0-0.4-0.1-0.7-0.2-1
			c-0.1-0.2-0.4-0.4-0.7-0.4c-0.3,0-0.5,0.1-0.7,0.4C18.5,30.5,18.4,30.8,18.4,31.3L18.4,31.3z"/>
		<path d="M21.9,31.3c0-0.7,0.1-1.3,0.4-1.7c0.3-0.4,0.7-0.6,1.3-0.6c0.2,0,0.4,0,0.6,0.1c0.2,0.1,0.3,0.2,0.5,0.4l0,0v-2.4h1.2v6.3
			h-1l-0.1-0.5c-0.1,0.2-0.3,0.4-0.5,0.5s-0.4,0.2-0.6,0.2c-0.5,0-1-0.2-1.3-0.6S21.9,32,21.9,31.3L21.9,31.3z M23.1,31.4
			c0,0.4,0.1,0.7,0.2,0.9c0.1,0.2,0.3,0.3,0.6,0.3c0.2,0,0.3,0,0.5-0.1c0.1-0.1,0.2-0.2,0.3-0.3v-1.9c-0.1-0.1-0.2-0.2-0.3-0.3
			c-0.1-0.1-0.3-0.1-0.4-0.1c-0.3,0-0.5,0.1-0.6,0.4S23.1,30.9,23.1,31.4L23.1,31.4z"/>
		<path d="M30.7,31.4c0,0.7-0.1,1.2-0.4,1.6s-0.7,0.6-1.3,0.6c-0.3,0-0.5-0.1-0.7-0.2c-0.2-0.1-0.3-0.3-0.5-0.5l-0.1,0.5h-1v-6.3H28
			v2.4l0,0c0.1-0.2,0.3-0.3,0.4-0.4C28.6,29,28.8,29,29,29c0.6,0,1,0.2,1.3,0.6S30.7,30.6,30.7,31.4L30.7,31.4z M29.6,31.3
			c0-0.4-0.1-0.8-0.2-1c-0.1-0.2-0.3-0.4-0.6-0.4c-0.2,0-0.3,0-0.5,0.1c-0.1,0.1-0.2,0.2-0.3,0.3v1.9c0.1,0.1,0.2,0.2,0.3,0.3
			c0.1,0.1,0.3,0.1,0.5,0.1c0.3,0,0.5-0.1,0.6-0.3C29.5,32.1,29.6,31.8,29.6,31.3L29.6,31.3z"/>
		<path d="M34.1,32.9c-0.1,0.2-0.3,0.4-0.5,0.5c-0.2,0.1-0.4,0.2-0.7,0.2c-0.5,0-0.8-0.1-1.1-0.4c-0.3-0.3-0.4-0.8-0.4-1.4v-2.6h1.2
			v2.7c0,0.3,0.1,0.6,0.2,0.7c0.1,0.1,0.3,0.2,0.5,0.2c0.2,0,0.4,0,0.5-0.1c0.1-0.1,0.2-0.1,0.3-0.3v-3.2h1.2v4.4h-1L34.1,32.9z"/>
		<path d="M38.5,32.2c0-0.1-0.1-0.2-0.2-0.3c-0.1-0.1-0.4-0.2-0.7-0.3c-0.5-0.1-0.9-0.3-1.2-0.5c-0.3-0.2-0.4-0.5-0.4-0.8
			c0-0.4,0.2-0.7,0.5-1c0.3-0.3,0.7-0.4,1.3-0.4c0.6,0,1,0.1,1.3,0.4s0.5,0.6,0.5,1h-1.2c0-0.2-0.1-0.3-0.2-0.4s-0.3-0.2-0.5-0.2
			c-0.2,0-0.3,0-0.5,0.1s-0.2,0.2-0.2,0.4c0,0.1,0.1,0.2,0.2,0.3c0.1,0.1,0.3,0.2,0.7,0.2c0.6,0.1,1,0.3,1.2,0.5
			c0.3,0.2,0.4,0.5,0.4,0.9c0,0.4-0.2,0.7-0.5,1c-0.3,0.2-0.8,0.4-1.3,0.4c-0.6,0-1.1-0.1-1.4-0.4c-0.3-0.3-0.5-0.6-0.5-1H37
			c0,0.2,0.1,0.4,0.2,0.5c0.1,0.1,0.3,0.2,0.6,0.2c0.2,0,0.4,0,0.5-0.1C38.5,32.5,38.5,32.4,38.5,32.2z"/>
	</g>
</g>
<rect x="31.3" y="37.6" fill="none" stroke="#000000" width="12.3" height="8.8"/>
<circle cx="41.3" cy="40.1" r="0.5"/>
<circle cx="41.3" cy="42.2" r="0.5"/>
<circle cx="41.3" cy="44.3" r="0.5"/>
<rect x="33.4" y="39.6" width="5.8" height="2.1"/>
<rect x="33.4" y="42.5" width="4.5" height="1.3"/>
</svg>
