<?xml version="1.0" standalone="no"?>
<!DOCTYPE svg PUBLIC "-//W3C//DTD SVG 20010904//EN"
 "http://www.w3.org/TR/2001/REC-SVG-20010904/DTD/svg10.dtd">
<svg version="1.0" xmlns="http://www.w3.org/2000/svg"
 width="727.000000pt" height="218.000000pt" viewBox="0 0 727.000000 218.000000"
 preserveAspectRatio="xMidYMid meet">
<metadata>
Created by potrace 1.15, written by Peter Selinger 2001-2017
</metadata>
<g transform="translate(0.000000,218.000000) scale(0.100000,-0.100000)"
fill="#000000" stroke="none">
<path d="M0 1090 l0 -1090 75 0 75 0 0 1090 0 1090 -75 0 -75 0 0 -1090z"/>
<path d="M2165 2038 c58 -79 205 -279 328 -445 l222 -303 92 0 93 0 -127 173
c-70 94 -173 235 -230 312 -57 77 -147 200 -200 273 l-97 132 -93 0 -93 0 105
-142z"/>
<path d="M3620 1530 l0 -650 75 0 75 0 0 650 0 650 -75 0 -75 0 0 -650z"/>
<path d="M4330 1735 l0 -445 80 0 80 0 0 375 0 375 430 0 430 0 0 70 0 70
-510 0 -510 0 0 -445z"/>
<path d="M5760 2176 c0 -2 118 -202 263 -443 l263 -438 87 -3 c48 -1 87 1 87
6 0 5 -116 204 -258 443 l-258 434 -92 3 c-51 1 -92 1 -92 -2z"/>
<path d="M7018 2082 c-31 -53 -147 -250 -257 -436 -111 -187 -201 -343 -201
-348 0 -4 35 -8 78 -8 l79 0 264 436 c145 240 266 440 267 445 2 5 -36 9 -85
9 l-88 0 -57 -98z"/>
<path d="M1020 1567 c-134 -45 -236 -136 -296 -262 -112 -235 -37 -506 180
-647 84 -54 169 -78 276 -78 220 0 397 121 477 327 23 59 27 83 27 178 0 118
-17 181 -72 270 -59 96 -169 181 -280 215 -91 28 -225 27 -312 -3z"/>
<path d="M2120 645 l0 -645 80 0 80 0 0 645 0 645 -80 0 -80 0 0 -645z"/>
<path d="M4620 1095 l0 -75 200 0 200 0 0 75 0 75 -200 0 -200 0 0 -75z"/>
<path d="M3026 868 c13 -23 243 -336 409 -558 89 -118 176 -236 195 -262 l33
-48 94 0 93 0 -106 142 c-57 79 -203 276 -323 438 l-217 295 -93 3 c-73 2 -91
0 -85 -10z"/>
<path d="M4330 440 l0 -440 535 0 535 0 0 70 0 70 -455 0 -455 0 0 370 0 370
-80 0 -80 0 0 -440z"/>
<path d="M5995 450 c-148 -237 -272 -435 -273 -441 -3 -6 30 -9 89 -7 l92 3
181 295 c100 162 221 359 269 438 l87 142 -88 0 -87 0 -270 -430z"/>
<path d="M6562 871 c2 -5 120 -203 262 -440 l259 -431 95 0 94 0 -14 23 c-8
12 -128 210 -268 440 l-253 417 -89 0 c-49 0 -88 -4 -86 -9z"/>
</g>
</svg>
